<svg width="110" height="110" viewBox="0 0 110 110" fill="none" xmlns="http://www.w3.org/2000/svg">
<path d="M66.6016 40.8203C65.4156 40.8203 64.4531 41.7828 64.4531 42.9688C64.4531 44.1547 65.4156 45.1172 66.6016 45.1172C67.7875 45.1172 68.75 44.1547 68.75 42.9688C68.75 41.7828 67.7875 40.8203 66.6016 40.8203Z" fill="#70004E"/>
<path d="M107.482 95.3303L78.8049 66.6529C83.4767 59.6159 85.9375 51.4669 85.9375 42.9688C85.9375 19.2758 66.6617 0 42.9688 0C19.2758 0 0 19.2758 0 42.9688C0 66.6617 19.2758 85.9375 42.9688 85.9375C51.4671 85.9375 59.6161 83.4765 66.6529 78.8051L74.5796 86.7318C74.5806 86.7328 74.5817 86.7339 74.583 86.7352L95.33 107.482C96.9538 109.106 99.1115 110 101.406 110C103.701 110 105.859 109.106 107.482 107.483C109.106 105.86 110 103.702 110 101.406C110 99.1102 109.106 96.9523 107.482 95.3303ZM65.6425 74.2773C65.6425 74.2775 65.6423 74.2775 65.6421 74.2777C59.0105 79.0945 51.1704 81.6406 42.9688 81.6406C21.6451 81.6406 4.29688 64.2924 4.29688 42.9688C4.29688 21.6451 21.6451 4.29688 42.9688 4.29688C64.2924 4.29688 81.6406 21.6451 81.6406 42.9688C81.6406 51.1704 79.0945 59.0105 74.2775 65.6423C71.8676 68.9623 68.9625 71.8676 65.6425 74.2773ZM70.1499 76.2251C72.3736 74.406 74.4062 72.3733 76.2251 70.1499L82.3204 76.2453C80.4667 78.433 78.433 80.4669 76.2453 82.3204L70.1499 76.2251ZM104.444 104.444C103.632 105.256 102.553 105.703 101.406 105.703C100.259 105.703 99.1807 105.256 98.3686 104.444L79.2915 85.3669C81.4672 83.4997 83.4997 81.4675 85.3667 79.2917L104.444 98.3694C105.256 99.1803 105.703 100.259 105.703 101.406C105.703 102.554 105.256 103.632 104.444 104.444Z" fill="#70004E"/>
<path d="M42.9688 8.59375C24.0142 8.59375 8.59375 24.0142 8.59375 42.9688C8.59375 61.9233 24.0142 77.3438 42.9688 77.3438C61.9233 77.3438 77.3438 61.9233 77.3438 42.9688C77.3438 24.0142 61.9233 8.59375 42.9688 8.59375ZM42.9688 73.0469C26.3837 73.0469 12.8906 59.5538 12.8906 42.9688C12.8906 26.3837 26.3837 12.8906 42.9688 12.8906C59.5538 12.8906 73.0469 26.3837 73.0469 42.9688C73.0469 59.5538 59.5538 73.0469 42.9688 73.0469Z" fill="#70004E"/>
<path d="M67.0452 33.7462C65.1952 28.9311 61.974 24.8142 57.7296 21.841C53.3842 18.7967 48.2799 17.1875 42.9688 17.1875C41.7824 17.1875 40.8203 18.1496 40.8203 19.3359C40.8203 20.5223 41.7824 21.4844 42.9688 21.4844C51.7986 21.4844 59.8621 27.0312 63.0343 35.2874C63.3626 36.1417 64.1766 36.6659 65.0403 36.6659C65.2964 36.6659 65.557 36.6197 65.8103 36.5224C66.9178 36.0968 67.4708 34.8539 67.0452 33.7462Z" fill="#70004E"/>
</svg>
