<svg width="110" height="110" viewBox="0 0 110 110" fill="none" xmlns="http://www.w3.org/2000/svg">
<g clip-path="url(#clip0)">
<path d="M55.0195 0.0114752C33.0126 0.00826753 13.1232 13.126 4.4614 33.3565L3.77588 33.5838L4.04165 34.3811C-7.36297 62.5092 6.19377 94.5567 34.3218 105.961C40.8913 108.625 47.914 109.992 55.0032 109.989C85.3725 109.993 109.995 85.3775 110 55.0083C110.005 24.639 85.389 0.0158285 55.0195 0.0114752ZM98.1518 82.7243L95.3281 79.9025V73.3295C95.3313 73.0459 95.2686 72.7654 95.1448 72.5102L87.9963 58.2333V51.3341C87.9963 50.7215 87.6905 50.1491 87.1807 49.8091L81.6818 46.1432C81.2508 45.8554 80.7181 45.7635 80.2154 45.8903L73.4812 47.5729L62.17 42.7192L60.6139 31.8168L64.9268 27.5057H74.185L77.3011 32.1889C77.5824 32.6101 78.0258 32.8962 78.5255 32.9789L89.5232 34.8119C89.8178 34.8614 90.1198 34.8373 90.403 34.7422L100.532 31.3659C109.027 47.6689 108.119 67.2771 98.1518 82.7243ZM90.5918 18.0734L87.6114 20.0603L79.3026 18.3978L73.9119 16.6034C73.582 16.4913 73.2269 16.4771 72.8891 16.563L66.0742 18.2658L63.0865 17.2705L65.3007 12.8421H71.4998C71.7841 12.8424 72.0645 12.7766 72.3191 12.6497L78.6611 9.47867C83.0286 11.7584 87.0464 14.6526 90.5918 18.0734ZM34.9269 7.77036L39.326 10.7031C39.5423 10.847 39.7865 10.9432 40.0427 10.9854L48.9251 12.4664L48.0582 15.06L43.4299 16.6052C43.0155 16.7431 42.6638 17.0245 42.4383 17.3989L37.1741 26.1714L28.7187 31.245L16.2546 33.0248C15.3512 33.1524 14.6794 33.9252 14.6783 34.8376V40.3364C14.6783 40.8226 14.8716 41.2886 15.2153 41.6323L18.3442 44.7612V47.9102L10.7191 42.8256L7.95317 34.5278C13.2156 22.5036 22.8608 12.9356 34.9269 7.77036ZM29.7085 67.8673L21.4235 66.2085L18.3442 60.0663V55.7589L25.1738 48.9293L27.7014 53.9864C28.0118 54.6078 28.6472 55.0003 29.3419 55H41.1351L46.1006 63.2758C46.4319 63.8273 47.028 64.1646 47.6714 64.1648H52.767L51.4839 70.5929L44.5444 77.5325C44.2 77.8759 44.0062 78.342 44.0055 78.8284V83.4108L37.4069 88.3597C36.9454 88.7059 36.6737 89.2492 36.6737 89.8261V96.4467L34.3935 95.6915L31.1748 87.6412V69.6636C31.1751 68.7925 30.5619 68.0415 29.7085 67.8673ZM24.1986 96.0446C6.91641 83.079 -0.392255 60.6767 5.9186 40.0138L7.44178 44.5815C7.57009 44.968 7.82349 45.301 8.16213 45.5273L17.2994 51.6182L15.2153 53.7041C14.8716 54.0478 14.6783 54.5138 14.6783 55V60.4989C14.678 60.7832 14.7438 61.0637 14.8707 61.3182L18.5366 68.65C18.7905 69.1564 19.2641 69.517 19.8197 69.627L27.5181 71.1648V87.9931C27.5179 88.2259 27.5621 88.4569 27.6482 88.6732L31.3141 97.8379C31.5148 98.3386 31.9259 98.7255 32.4377 98.8955L37.9366 100.729C38.1203 100.791 38.3128 100.823 38.5066 100.824C39.5189 100.824 40.3396 100.003 40.3396 98.9909V90.7426L46.9382 85.7936C47.3997 85.4474 47.6714 84.9042 47.6714 84.3272V79.5872L54.4661 72.7925C54.7216 72.5366 54.8957 72.2105 54.9665 71.8559L56.7995 62.6911C56.9979 61.6983 56.3541 60.7328 55.3613 60.5344C55.2433 60.5108 55.1235 60.4989 55.0032 60.4989H48.7088L43.7434 52.2231C43.4121 51.6716 42.8159 51.3343 42.1725 51.3341H30.4746L27.3256 45.0159C27.0619 44.4885 26.5606 44.1201 25.9784 44.0261C25.3965 43.9256 24.8023 44.1176 24.3892 44.5394L22.0101 46.9094V44.0023C22.0101 43.5161 21.8167 43.0501 21.473 42.7064L18.3442 39.5776V36.4267L29.6022 34.8192C29.8439 34.7842 30.0764 34.7012 30.2859 34.5754L39.4506 29.0766C39.7077 28.9222 39.9231 28.7068 40.0775 28.4497L45.2281 19.866L50.0836 18.2457C50.6318 18.0658 51.0621 17.6358 51.242 17.0873L53.0749 11.5884C53.3925 10.6272 52.8708 9.59048 51.9096 9.27292C51.821 9.24359 51.73 9.22114 51.6379 9.20556L41.0288 7.43676L39.1647 6.19402C50.6992 2.43968 63.1921 2.90433 74.416 7.50458L71.0672 9.17623H64.168C63.4698 9.17234 62.8304 9.56551 62.5183 10.1899L58.8524 17.5217C58.4008 18.4276 58.769 19.5283 59.6749 19.9799C59.7522 20.0184 59.8319 20.0514 59.9137 20.0786L65.4125 21.9116C65.7425 22.0236 66.0976 22.0378 66.4353 21.9519L73.2502 20.2491L78.2432 21.9116C78.3147 21.9372 78.3882 21.9569 78.4631 21.9702L87.6279 23.8032C88.1045 23.9003 88.6003 23.8027 89.0044 23.5319L93.1762 20.7495C95.2294 23.0363 97.0745 25.5016 98.6898 28.1161L89.6716 31.1222L79.9075 29.4945L76.6815 24.6555C76.3433 24.1485 75.7751 23.8428 75.1657 23.8398H64.168C63.6818 23.8398 63.2157 24.0332 62.8721 24.3769L57.3732 29.8758C56.9649 30.2838 56.7727 30.8605 56.8545 31.4319L58.6874 44.2626C58.7798 44.897 59.1968 45.4371 59.7872 45.6868L72.6179 51.1856C72.9854 51.3449 73.3955 51.3776 73.7836 51.2791L80.3291 49.6423L84.3304 52.3147V58.6659C84.3272 58.9496 84.39 59.23 84.5137 59.4853L91.6622 73.7621V80.6613C91.6622 81.1475 91.8556 81.6136 92.1993 81.9572L96.0338 85.7936C79.0279 108.461 46.866 113.051 24.1986 96.0446Z" fill="#70004E"/>
</g>
<defs>
<clipPath id="clip0">
<rect width="110" height="110" fill="white"/>
</clipPath>
</defs>
</svg>
